<svg width="18" height="18" viewBox="0 0 18 18" fill="none" xmlns="http://www.w3.org/2000/svg">
<g clip-path="url(#clip0_3_14)">
<path d="M9 17C13.4183 17 17 13.4183 17 9C17 4.58172 13.4183 1 9 1C4.58172 1 1 4.58172 1 9C1 13.4183 4.58172 17 9 17Z" stroke="black" stroke-linecap="round" stroke-linejoin="round"/>
<path d="M2.46655 13.6167L3.44155 13.025C3.53825 12.9654 3.61809 12.882 3.67352 12.7829C3.72894 12.6837 3.7581 12.572 3.75822 12.4584L3.77489 9.45005C3.77622 9.32533 3.81386 9.20371 3.88322 9.10005L5.53322 6.50838C5.58273 6.43181 5.64725 6.36607 5.72287 6.31512C5.79849 6.26416 5.88365 6.22906 5.97321 6.21193C6.06277 6.1948 6.15487 6.19599 6.24396 6.21543C6.33305 6.23487 6.41727 6.27216 6.49155 6.32505L8.12489 7.50838C8.26581 7.60663 8.43734 7.65099 8.60822 7.63338L11.2332 7.27505C11.3924 7.25312 11.5379 7.17296 11.6415 7.05005L13.4915 4.91672C13.6012 4.78667 13.6578 4.62 13.6498 4.45005L13.5582 2.42505" stroke="black" stroke-linecap="round" stroke-linejoin="round"/>
<path d="M13.925 15.3083L13.025 14.4083C12.9418 14.3251 12.8384 14.2648 12.725 14.2333L10.9334 13.7666C10.776 13.7235 10.6399 13.6243 10.5508 13.4876C10.4617 13.3509 10.4259 13.1863 10.45 13.025L10.6417 11.675C10.6607 11.5614 10.7081 11.4545 10.7795 11.3642C10.8509 11.2739 10.944 11.203 11.05 11.1583L13.5834 10.1C13.701 10.0509 13.8303 10.0366 13.9558 10.0587C14.0814 10.0809 14.1979 10.1386 14.2917 10.225L16.3667 12.125" stroke="black" stroke-linecap="round" stroke-linejoin="round"/>
</g>
<defs>
<clipPath id="clip0_3_14">
<rect width="18" height="18" fill="white"/>
</clipPath>
</defs>
</svg>
